HIERARCHY
ROOT hip
{
  OFFSET 50.8232 85.1669 -76.3744
  CHANNELS 6 Xposition Yposition Zposition Zrotation Xrotation Yrotation
  JOINT abdomen
  {
    OFFSET 0 20.6881 -0.73152
    CHANNELS 3 Zrotation Xrotation Yrotation
    JOINT chest
    {
      OFFSET 0 11.7043 -0.48768
      CHANNELS 3 Zrotation Xrotation Yrotation
      JOINT neck
      {
        OFFSET 0 22.1894 -2.19456
        CHANNELS 3 Zrotation Xrotation Yrotation
        JOINT head
        {
          OFFSET -0.24384 7.07133 1.2192
          CHANNELS 3 Zrotation Xrotation Yrotation
          JOINT leftEye
          {
            OFFSET 4.14528 8.04674 8.04672
            CHANNELS 3 Zrotation Xrotation Yrotation
            End Site
            {
              OFFSET 1 0 0
            }
          }
          JOINT rightEye
          {
            OFFSET -3.6576 8.04674 8.04672
            CHANNELS 3 Zrotation Xrotation Yrotation
            End Site
            {
              OFFSET 1 0 0
            }
          }
        }
      }
      JOINT rCollar
      {
        OFFSET -2.68224 19.2634 -4.8768
        CHANNELS 3 Zrotation Xrotation Yrotation
        JOINT rShldr
        {
          OFFSET -8.77824 -1.95073 1.46304
          CHANNELS 3 Zrotation Xrotation Yrotation
          JOINT rForeArm
          {
            OFFSET -28.1742 -1.7115 0.48768
            CHANNELS 3 Zrotation Xrotation Yrotation
            JOINT rHand
            {
              OFFSET -22.5879 0.773209 7.07136
              CHANNELS 3 Zrotation Xrotation Yrotation
              JOINT rThumb1
              {
                OFFSET -1.2192 -0.487915 3.41376
                CHANNELS 3 Zrotation Xrotation Yrotation
                JOINT rThumb2
                {
                  OFFSET -3.37035 -0.52449 3.41376
                  CHANNELS 3 Zrotation Xrotation Yrotation
                  End Site
                  {
                    OFFSET -1.78271 -1.18214 1.43049
                  }
                }
              }
              JOINT rIndex1
              {
                OFFSET -7.75947 0.938293 5.60832
                CHANNELS 3 Zrotation Xrotation Yrotation
                JOINT rIndex2
                {
                  OFFSET -2.54057 -0.884171 1.56538
                  CHANNELS 3 Zrotation Xrotation Yrotation
                  End Site
                  {
                    OFFSET -1.62519 -0.234802 1.16502
                  }
                }
              }
              JOINT rMid1
              {
                OFFSET -8.24714 1.18213 3.41376
                CHANNELS 3 Zrotation Xrotation Yrotation
                JOINT rMid2
                {
                  OFFSET -3.10165 -0.590103 1.0647
                  CHANNELS 3 Zrotation Xrotation Yrotation
                  End Site
                  {
                    OFFSET -2.48547 -0.328903 0.83742
                  }
                }
              }
              JOINT rRing1
              {
                OFFSET -8.82822 0.546677 1.51678
                CHANNELS 3 Zrotation Xrotation Yrotation
                JOINT rRing2
                {
                  OFFSET -2.60934 -0.819778 -0.0198488
                  CHANNELS 3 Zrotation Xrotation Yrotation
                  End Site
                  {
                    OFFSET -2.33842 -0.294052 0.168128
                  }
                }
              }
              JOINT rPinky1
              {
                OFFSET -8.27202 -0.0477905 -0.4584
                CHANNELS 3 Zrotation Xrotation Yrotation
                JOINT rPinky2
                {
                  OFFSET -1.82734 -0.647385 -0.700984
                  CHANNELS 3 Zrotation Xrotation Yrotation
                  End Site
                  {
                    OFFSET -1.69225 -0.51767 -0.607171
                  }
                }
              }
            }
          }
        }
      }
      JOINT lCollar
      {
        OFFSET 2.68224 19.2634 -4.8768
        CHANNELS 3 Zrotation Xrotation Yrotation
        JOINT lShldr
        {
          OFFSET 8.77824 -1.95073 1.46304
          CHANNELS 3 Zrotation Xrotation Yrotation
          JOINT lForeArm
          {
            OFFSET 28.1742 -1.7115 0.48768
            CHANNELS 3 Zrotation Xrotation Yrotation
            JOINT lHand
            {
              OFFSET 22.5879 0.773209 7.07136
              CHANNELS 3 Zrotation Xrotation Yrotation
              JOINT lThumb1
              {
                OFFSET 1.2192 -0.487915 3.41376
                CHANNELS 3 Zrotation Xrotation Yrotation
                JOINT lThumb2
                {
                  OFFSET 3.37035 -0.52449 3.41376
                  CHANNELS 3 Zrotation Xrotation Yrotation
                  End Site
                  {
                    OFFSET 1.78271 -1.18214 1.43049
                  }
                }
              }
              JOINT lIndex1
              {
                OFFSET 7.75947 0.938293 5.60832
                CHANNELS 3 Zrotation Xrotation Yrotation
                JOINT lIndex2
                {
                  OFFSET 2.54057 -0.884171 1.56538
                  CHANNELS 3 Zrotation Xrotation Yrotation
                  End Site
                  {
                    OFFSET 1.62519 -0.234802 1.16502
                  }
                }
              }
              JOINT lMid1
              {
                OFFSET 8.24714 1.18213 3.41376
                CHANNELS 3 Zrotation Xrotation Yrotation
                JOINT lMid2
                {
                  OFFSET 3.10165 -0.590103 1.0647
                  CHANNELS 3 Zrotation Xrotation Yrotation
                  End Site
                  {
                    OFFSET 2.48547 -0.328903 0.83742
                  }
                }
              }
              JOINT lRing1
              {
                OFFSET 8.82822 0.546677 1.51678
                CHANNELS 3 Zrotation Xrotation Yrotation
                JOINT lRing2
                {
                  OFFSET 2.60934 -0.819778 -0.0198488
                  CHANNELS 3 Zrotation Xrotation Yrotation
                  End Site
                  {
                    OFFSET 2.33842 -0.294052 0.168128
                  }
                }
              }
              JOINT lPinky1
              {
                OFFSET 8.27202 -0.0477905 -0.4584
                CHANNELS 3 Zrotation Xrotation Yrotation
                JOINT lPinky2
                {
                  OFFSET 1.82734 -0.647385 -0.700984
                  CHANNELS 3 Zrotation Xrotation Yrotation
                  End Site
                  {
                    OFFSET 1.69225 -0.51767 -0.607171
                  }
                }
              }
            }
          }
        }
      }
    }
  }
  JOINT rButtock
  {
    OFFSET -8.77824 4.35084 1.2192
    CHANNELS 3 Zrotation Xrotation Yrotation
    JOINT rThigh
    {
      OFFSET 0 -1.70687 -2.19456
      CHANNELS 3 Zrotation Xrotation Yrotation
      JOINT rShin
      {
        OFFSET 0 -36.8199 0.73152
        CHANNELS 3 Zrotation Xrotation Yrotation
        JOINT rFoot
        {
          OFFSET 0.73152 -45.1104 -5.12064
          CHANNELS 3 Zrotation Xrotation Yrotation
          End Site
          {
            OFFSET -1.1221 -3.69964 12.103
          }
        }
      }
    }
  }
  JOINT lButtock
  {
    OFFSET 8.77824 4.35084 1.2192
    CHANNELS 3 Zrotation Xrotation Yrotation
    JOINT lThigh
    {
      OFFSET 0 -1.70687 -2.19456
      CHANNELS 3 Zrotation Xrotation Yrotation
      JOINT lShin
      {
        OFFSET 0 -36.8199 0.73152
        CHANNELS 3 Zrotation Xrotation Yrotation
        JOINT lFoot
        {
          OFFSET -0.73152 -45.1104 -5.12064
          CHANNELS 3 Zrotation Xrotation Yrotation
          End Site
          {
            OFFSET 1.1221 -3.69964 12.103
          }
        }
      }
    }
  }
}
MOTION
Frames:	6
Frame Time:	0.00833333
51.6429 85.3166 -74.2767 -0.825662 0.000779596 0.0151836 1.08606 -0.0040899 0.0298994 0.299447 -0.00345824 0.0518745 5.73968e-015 0 -3.72721e-017 1.70582e-014 3.18055e-015 -1.02498e-016 -0 0 0 -0 0 0 3.03043e-015 3.33896e-017 1.98785e-016 6.23976e-014 6.08778e-016 3.97569e-016 1.03925e-012 -2.82274e-013 9.54166e-015 1.18227e-011 4.4088e-013 -9.85972e-014 2.7893e-011 3.45408e-013 -1.7175e-013 4.81631e-011 5.94764e-013 -2.95792e-013 2.79002e-011 3.45885e-013 -1.74931e-013 7.73091 5.47488 0.417314 2.7893e-011 3.45289e-013 -1.65389e-013 2.90554 0.965183 0.102902 2.79034e-011 3.45587e-013 -1.7175e-013 10.2786 0.731801 0.0259123 2.78887e-011 3.47078e-013 -1.62208e-013 2.22167 -0.733487 -0.20892 2.8339e-015 3.41661e-017 -1.98785e-016 5.96919e-014 5.77718e-016 -9.93923e-016 1.03005e-012 3.3197e-013 -1.90833e-014 1.1823e-011 -1.90982e-013 -4.13472e-014 2.78795e-011 3.05943e-013 -1.62208e-013 4.81544e-011 5.24792e-013 -2.8625e-013 2.78736e-011 3.07321e-013 -1.59028e-013 -7.73091 5.47488 -0.417314 2.78795e-011 3.06327e-013 -1.65389e-013 -2.90554 0.965183 -0.102902 2.78728e-011 3.06327e-013 -1.64594e-013 -10.2786 0.731801 -0.0259123 2.78807e-011 3.09309e-013 -1.68569e-013 -2.22167 -0.733487 0.20892 -2.03217e-016 0 -3.88251e-019 1.33862 -5.65667 -0.117788 0.000449253 4.68995 0.0313111 -0.524555 0.964913 0.0795391 2.03217e-016 0 3.88251e-019 0.313408 -1.92005 0.0118654 0.00934878 -2.07854 0.0772602 0.509933 3.99665 -0.13997 
50.8225 84.6734 -74.7308 -1.46143 0.188091 -1.18504 1.50902 0.300484 0.385202 1.01796 -0.153113 0.17695 -3.11056 -0.803761 -1.2181 4.06973 -1.74087 -1.15999 -0 0 0 -0 0 0 -1.42829e-014 -6.91045e-015 -3.35558e-014 21.8393 5.67926 0.423953 -5.16524 -2.57068 7.81208 0.0154685 -2.76002 -0.386273 2.64605e-010 -3.4866e-010 -1.13422e-011 4.57467e-010 -6.02542e-010 -1.80742e-011 2.64613e-010 -3.48661e-010 -1.13447e-011 7.73091 5.47488 0.417314 2.64604e-010 -3.48659e-010 -1.13346e-011 2.90554 0.965183 0.102902 2.64612e-010 -3.48659e-010 -1.13383e-011 10.2786 0.731801 0.0259123 2.64599e-010 -3.48657e-010 -1.13278e-011 2.22167 -0.733487 -0.20892 -1.4427e-014 -6.90565e-015 -3.38943e-014 -22.8289 3.5543 -0.560732 3.86596 -1.69033 -6.1099 -0.0430606 4.61415 -0.64095 2.4661e-010 3.44907e-010 -1.89194e-011 4.25005e-010 5.94e-010 -3.61682e-011 2.46604e-010 3.44907e-010 -1.89151e-011 -7.73091 5.47488 -0.417314 2.4661e-010 3.44906e-010 -1.89208e-011 -2.90554 0.965183 -0.102902 2.46602e-010 3.44906e-010 -1.89213e-011 -10.2786 0.731801 -0.0259123 2.46613e-010 3.44909e-010 -1.89247e-011 -2.22167 -0.733487 0.20892 -2.03217e-016 0 -3.88251e-019 0.37796 -5.27419 -0.0867537 -0.000597505 7.1323 0.0717003 -0.555359 -1.12498 -1.7914 2.03217e-016 0 3.88251e-019 2.47491 -2.79567 -0.517072 0.00884761 3.11971 -0.0226316 0.635403 0.348448 1.90433 
50.7732 84.6609 -74.7447 -2.10214 0.381117 -2.46448 1.92241 0.62065 0.765733 1.78132 -0.306781 0.310313 -6.43787 -1.6552 -2.50545 8.3006 -3.58028 -2.38589 -0 0 0 -0 0 0 -3.6498e-014 -1.46005e-014 -7.19725e-014 44.8414 11.6516 0.892889 -9.84016 -5.10309 16.0776 -0.00880854 -5.67054 -0.796654 5.58804e-010 -7.76974e-010 -2.48294e-011 9.66128e-010 -1.34274e-009 -3.9486e-011 5.58812e-010 -7.76977e-010 -2.48308e-011 7.73091 5.47488 0.417314 5.58802e-010 -7.76973e-010 -2.48203e-011 2.90554 0.965183 0.102902 5.58807e-010 -7.76973e-010 -2.48212e-011 10.2786 0.731801 0.0259123 5.58796e-010 -7.76971e-010 -2.48095e-011 2.22167 -0.733487 -0.20892 -3.65826e-014 -1.45912e-014 -7.22458e-014 -46.8839 7.26301 -1.16328 7.53398 -3.3926 -12.5418 0.0253581 9.52237 -1.33705 5.133e-010 7.6539e-010 -1.91354e-011 8.84819e-010 1.31846e-009 -4.069e-011 5.13294e-010 7.65389e-010 -1.91298e-011 -7.73091 5.47488 -0.417314 5.13299e-010 7.65388e-010 -1.9135e-011 -2.90554 0.965183 -0.102902 5.13291e-010 7.65387e-010 -1.91368e-011 -10.2786 0.731801 -0.0259123 5.13304e-010 7.6539e-010 -1.91396e-011 -2.22167 -0.733487 0.20892 -2.03217e-016 0 -3.88251e-019 -0.670155 -4.87595 -0.055106 -0.0055038 9.73658 0.115326 -0.737121 -3.34111 -3.76196 2.03217e-016 0 3.88251e-019 4.71111 -3.69471 -1.07379 0.0280934 8.58656 -0.129091 1.05149 -3.48941 4.08032 
50.7074 84.6686 -74.6581 -2.70944 0.561733 -3.58564 2.34359 0.909486 1.09593 2.45695 -0.452413 0.427113 -9.4342 -2.40692 -3.65718 11.9971 -5.21402 -3.49284 -0 0 0 -0 0 0 -4.89095e-014 -2.07981e-014 -1.01065e-013 65.256 17.034 1.32369 -13.4443 -7.13982 23.6065 -0.0662312 -8.27856 -1.16966 7.38029e-010 -1.04667e-009 -3.36831e-011 1.27608e-009 -1.80882e-009 -5.3631e-011 7.38037e-010 -1.04667e-009 -3.36843e-011 7.73091 5.47488 0.417314 7.38026e-010 -1.04667e-009 -3.3673e-011 2.90554 0.965183 0.102902 7.38029e-010 -1.04667e-009 -3.36715e-011 10.2786 0.731801 0.0259123 7.3802e-010 -1.04667e-009 -3.3659e-011 2.22167 -0.733487 -0.20892 -4.89487e-014 -2.07853e-014 -1.01285e-013 -68.2749 10.6588 -1.70845 10.5336 -4.84076 -18.3896 0.188332 13.8354 -1.97391 6.84071e-010 1.03411e-009 -5.64337e-011 1.17871e-009 1.78095e-009 -1.07932e-010 6.84066e-010 1.03411e-009 -5.64273e-011 -7.73091 5.47488 -0.417314 6.8407e-010 1.03411e-009 -5.64317e-011 -2.90554 0.965183 -0.102902 6.84061e-010 1.0341e-009 -5.64347e-011 -10.2786 0.731801 -0.0259123 6.84076e-010 1.03411e-009 -5.6437e-011 -2.22167 -0.733487 0.20892 -2.03217e-016 0 -3.88251e-019 -1.5446 -4.50922 -0.0248075 -0.0132521 12.017 0.154408 -1.02712 -5.28164 -5.55588 2.03217e-016 0 3.88251e-019 6.74928 -4.54554 -1.57805 0.0631696 13.5161 -0.228542 1.6694 -6.90925 6.03614 
50.5548 84.6809 -74.6124 -3.24927 0.712245 -4.31094 2.79235 1.12014 1.30016 2.91195 -0.577967 0.502494 -11.5303 -2.91354 -4.46709 14.5067 -6.34165 -4.29022 -0 0 0 -0 0 0 -3.68117e-014 -2.32648e-014 -1.06847e-013 79.3944 20.9451 1.60939 -15.7471 -8.45434 29.1405 -0.12758 -10.1318 -1.43911 6.29821e-010 -9.19817e-010 -3.09532e-011 1.08924e-009 -1.58959e-009 -4.96087e-011 6.29829e-010 -9.19822e-010 -3.09563e-011 7.73091 5.47488 0.417314 6.29818e-010 -9.19816e-010 -3.09436e-011 2.90554 0.965183 0.102902 6.2982e-010 -9.19816e-010 -3.09404e-011 10.2786 0.731801 0.0259123 6.29811e-010 -9.19814e-010 -3.09277e-011 2.22167 -0.733487 -0.20892 -3.68405e-014 -2.32508e-014 -1.07046e-013 -83.1534 13.2761 -2.08656 12.5728 -5.85849 -22.7242 0.353314 16.6675 -2.41158 6.15046e-010 9.2342e-010 -1.86438e-010 1.05778e-009 1.58852e-009 -3.31974e-010 6.15042e-010 9.23417e-010 -1.86431e-010 -7.73091 5.47488 -0.417314 6.15045e-010 9.23416e-010 -1.86435e-010 -2.90554 0.965183 -0.102902 6.15036e-010 9.23414e-010 -1.86439e-010 -10.2786 0.731801 -0.0259123 6.15052e-010 9.23417e-010 -1.86441e-010 -2.22167 -0.733487 0.20892 -2.03217e-016 0 -3.88251e-019 -1.98408 -4.22127 0.00219099 -0.0202963 13.4877 0.18046 -1.29829 -6.55572 -6.88453 2.03217e-016 0 3.88251e-019 8.32382 -5.27696 -1.94893 0.09943 17.1026 -0.304035 2.23737 -9.32552 7.3871 
50.3581 84.6864 -74.6728 -3.73873 0.826537 -4.47667 3.33068 1.2295 1.317 3.05085 -0.680676 0.517364 -12.3275 -3.06583 -4.80098 15.3963 -6.78063 -4.65887 -0 0 0 -0 0 0 2.03919e-014 -2.0706e-014 -7.14514e-014 84.8463 22.8005 1.65924 -16.7748 -9.09363 31.7706 -0.158481 -10.9274 -1.55608 -2.09259e-011 -3.57179e-011 2.0287e-012 -3.53607e-011 -6.14124e-011 3.23557e-012 -2.09187e-011 -3.57207e-011 2.01926e-012 7.73091 5.47488 0.417314 -2.09289e-011 -3.57167e-011 2.03516e-012 2.90554 0.965183 0.102902 -2.09268e-011 -3.57168e-011 2.03883e-012 10.2786 0.731801 0.0259123 -2.09348e-011 -3.5715e-011 2.05059e-012 2.22167 -0.733487 -0.20892 2.03175e-014 -2.06946e-014 -7.16778e-014 -88.9999 14.8134 -2.19186 13.5634 -6.4088 -24.9029 0.409415 17.3748 -2.52522 9.14815e-011 8.30725e-011 -5.17895e-010 1.50118e-010 1.36199e-010 -8.9781e-010 9.14788e-011 8.30701e-011 -5.1789e-010 -7.73091 5.47488 -0.417314 9.14802e-011 8.30673e-011 -5.17891e-010 -2.90554 0.965183 -0.102902 9.14718e-011 8.30657e-011 -5.17896e-010 -10.2786 0.731801 -0.0259123 9.14893e-011 8.30685e-011 -5.17899e-010 -2.22167 -0.733487 0.20892 -2.03217e-016 0 -3.88251e-019 -1.77086 -4.01227 0.0201759 -0.0227111 13.7546 0.186131 -1.40567 -6.87578 -7.54548 2.03217e-016 0 3.88251e-019 9.30472 -5.87633 -2.14427 0.119615 18.8552 -0.341465 2.48823 -10.3834 7.84665 
